# xmcd CD database file generated by Grip 3.4.3
# 
# Track frame offsets:
#       150
#       18310
#       28231
#       38009
# 
# Disc length: 720 seconds
# 
# Revision: 1
# Processed by: cddbd v1.5.2PL0 Copyright (c) Steve Scherf et al.
# Submitted via: Grip 3.4.3
# 
DISCID=2702ce04
DTITLE=Jannie Stalknecht, Roelof Stalknecht, Piet Rikkers, Herman Timmer
DTITLE=Various Artist - Martina zingt bie Martini
DYEAR=1960
DGENRE=Country
TTITLE0=Laiverd, kom weer bie mie
TTITLE1=Allain is maar allain
TTITLE2=Dien Bliede Lach
TTITLE3=Terugkiek
EXTD=
EXTT0=
EXTT1=
EXTT2=
EXTT3=
PLAYORDER=
